# xmcd CD database file
#
# Track frame offsets:
#	183
#	21918
#	38490
#	52570
#	73698
#	92530
#	103015
#	130765
#	153868
#	178125
#	205608
#	222645
#
# Disc length: 3179 seconds
#
# Revision: 0
# Processed by: cddbd v1.4PL0 Copyright (c) Steve Scherf et al.
# Submitted via: Feurio! 1.65 - http://www.feurio.com
#
DISCID=980c690c
DTITLE=J. B. Hutto - Slideslinger
DYEAR=1988
DGENRE=Blues
TTITLE0=I Feel So Good
TTITLE1=Lulubelle's Here
TTITLE2=Leave Your Love In Greater Hands
TTITLE3=That's The Truth
TTITLE4=My Heart Is Achin' To Love You
TTITLE5=J. B.'s Crawl
TTITLE6=Please Help
TTITLE7=Angel Face
TTITLE8=Tell Me Mama
TTITLE9=Lone Wolf
TTITLE10=Look At The Yonder Wall
TTITLE11=Combination Boogie
EXTD=
EXTT0=
EXTT1=
EXTT2=
EXTT3=
EXTT4=
EXTT5=
EXTT6=
EXTT7=
EXTT8=
EXTT9=
EXTT10=
EXTT11=
PLAYORDER=
